<svg xmlns="http://www.w3.org/2000/svg" viewBox="0 0 300 96.6" style="enable-background:new 0 0 300 96.6" xml:space="preserve"><path d="M84.1 71.253v-1.4h10.4v1.4h-4.4v11.3h-1.6v-11.3zM101.3 69.853v5.2c.8-1.2 2-1.6 3.1-1.6 2.6 0 3.8 1.7 3.8 4.2v4.9h-1.5v-4.9c0-1.8-.9-2.8-2.6-2.8-1.7 0-2.9 1.3-2.9 2.9v4.8h-1.5v-12.8l1.6.1zM122.8 81.153c-.9 1.1-2.5 1.6-3.9 1.6-2.8 0-4.8-1.8-4.8-4.7 0-2.7 2-4.7 4.7-4.7 2.8 0 4.9 1.7 4.6 5.3h-7.8c.2 1.7 1.5 2.7 3.3 2.7 1 0 2.3-.4 2.9-1.1l1 .9zm-.9-3.7c-.1-1.8-1.3-2.7-3.1-2.7-1.6 0-3 .9-3.2 2.7h6.3zM139 69.853l7.9 9.7v-9.7h1.6v12.7h-1.2l-7.9-9.7v9.7h-1.6v-12.7zM163.2 81.153c-.9 1.1-2.5 1.6-3.9 1.6-2.8 0-4.8-1.8-4.8-4.7 0-2.7 2-4.7 4.7-4.7 2.8 0 4.9 1.7 4.6 5.3H156c.2 1.7 1.5 2.7 3.3 2.7 1 0 2.3-.4 2.9-1.1l1 .9zm-.9-3.7c-.1-1.8-1.3-2.7-3.1-2.7-1.6 0-3 .9-3.2 2.7h6.3zM171.5 77.953l-3-4.3v-.1h1.6l2.4 3.4 2.3-3.4h1.7v.1l-3.1 4.3 3.4 4.6H175l-2.5-3.6-2.6 3.6h-1.7zM184.7 73.553h2.8v1.3h-2.8v4.8c0 1.1.4 1.7 1.4 1.7.4 0 .9-.1 1.3-.3l.4 1.2c-.6.3-1.2.4-1.8.4-2 0-2.9-1.1-2.9-3.1v-4.8h-1.8v-1.3h1.8v-2.5l1.5-.2.1 2.8zM207.5 69.853l5.8 12.8h-1.7l-1.3-2.8h-7.4l-1.3 2.8h-1.8l5.8-12.8h1.9zm-.9 1.6-3.1 6.9h6.1l-3-6.9zM218.7 73.553h1.4l.1 1.7c.7-1.2 2.1-1.9 3.5-1.9 2.6 0 4.5 1.9 4.5 4.6 0 2.8-1.9 4.7-4.6 4.7-1.3 0-2.7-.6-3.4-1.8v5.9h-1.5v-13.2zm8 4.6c0-2-1.3-3.2-3.2-3.2-1.9 0-3.2 1.4-3.2 3.2 0 1.8 1.3 3.2 3.2 3.2 1.8 0 3.2-1.2 3.2-3.2zM234.1 73.553h1.4l.1 1.7c.7-1.2 2.1-1.9 3.5-1.9 2.6 0 4.5 1.9 4.5 4.6 0 2.8-1.9 4.7-4.6 4.7-1.3 0-2.7-.6-3.5-1.8v5.9H234l.1-13.2zm8 4.6c0-2-1.3-3.2-3.2-3.2-1.9 0-3.2 1.4-3.2 3.2 0 1.8 1.4 3.2 3.2 3.2 1.8 0 3.2-1.2 3.2-3.2zM251.1 82.553h-1.5v-12.7h1.5zM259.5 70.853c0 1.3-2 1.3-2 0s2-1.3 2 0zm-1.8 11.7h1.5v-9h-1.5v9zM273.8 81.153c-.9 1.1-2.5 1.6-3.9 1.6-2.8 0-4.8-1.8-4.8-4.7 0-2.7 2-4.7 4.7-4.7 2.8 0 4.9 1.7 4.6 5.3h-7.7c.2 1.7 1.5 2.7 3.3 2.7 1 0 2.3-.4 2.9-1.1l.9.9zm-.9-3.7c-.1-1.8-1.3-2.7-3.1-2.7-1.6 0-3 .9-3.2 2.7h6.3zM289.1 69.753v12.8h-1.4l-.1-1.6c-.7 1.2-2.1 1.8-3.4 1.8-2.6 0-4.6-1.7-4.6-4.7s2-4.7 4.6-4.7c1.3 0 2.8.6 3.4 1.8v-5.4h1.5zm-4.8 5c-1.8 0-3.2 1.2-3.2 3.3 0 2.1 1.4 3.3 3.2 3.3 1.8 0 3.2-1.3 3.2-3.3 0-2-1.4-3.3-3.2-3.3z"/><g><path d="m116.3 20.1-12.6 17.3h-1.3L90 20.1v28.1h-6V11.6h6.9l12.2 17.1 12.2-17.1h6.9v36.6h-5.9V20.1zM130.3 60.1V22.4h5.1l.3 4.2c2-3.1 5.7-4.7 9.2-4.7 7.8 0 13.2 5.6 13.2 13.4 0 7.8-5.1 13.4-13.2 13.4-3.2 0-7.2-1.2-9.2-4.3v15.7h-5.4zm22.3-24.8c0-4.9-3.3-8.2-8.3-8.2-5 0-8.2 3.6-8.2 8.2s3.4 8.2 8.2 8.2 8.3-3.4 8.3-8.2zM169.4 11.5v14.6c2.3-3.1 5.3-4.2 8.5-4.2 7.4 0 10.7 4.9 10.7 12.2V48h-5.4V34.1c0-4.9-2.5-7.3-6.6-7.3-4.2 0-7.2 3.4-7.2 7.7v13.4H164V11.3h5.4zM216.5 22.4h5.3v25.8h-5.2l-.3-4.2c-1.7 3.3-5.8 4.9-9 4.9-7.5-.1-13.3-4.9-13.3-13.7 0-8.6 6-13.4 13.5-13.4 3.7 0 7.2 1.7 8.9 4.6l.1-4zm-17 12.8c0 5.3 3.8 8.6 8.5 8.6 11.3 0 11.3-17.1 0-17.1-4.7 0-8.5 3.2-8.5 8.5zM245.9 28.7c-2.1-1.9-4.3-2.4-6.9-2.4-3.3 0-5.6 1-5.6 3.1s2.3 3 5.7 3.3c4.8.4 11.1 1.5 11.1 8.1 0 4.8-4.3 8.2-11.1 8.2-4.2 0-8.5-.9-11.9-4.8l2.9-3.8c2.4 2.7 6.1 3.8 9.2 3.8 2.6 0 5.5-.9 5.6-3.3 0-2.3-2.2-3.2-6-3.6-4.9-.5-10.6-2-10.6-7.7s6-7.8 10.8-7.8c4 0 7.1.9 10.1 3.4l-3.3 3.5zM261.8 14.8c0 4.4-6.8 4.4-6.8 0s6.8-4.4 6.8 0zm-6.2 7.5v25.9h5.4V22.3h-5.4zM285.2 28.7c-2.1-1.9-4.3-2.4-6.9-2.4-3.3 0-5.6 1-5.6 3.1s2.3 3 5.7 3.3c4.8.4 11.1 1.5 11.1 8.1 0 4.8-4.3 8.2-11.1 8.2-4.2 0-8.5-.9-11.9-4.8l2.9-3.8c2.4 2.7 6.1 3.8 9.2 3.8 2.6 0 5.5-.9 5.6-3.3 0-2.3-2.2-3.2-6-3.6-4.9-.5-10.6-2-10.6-7.7s6-7.8 10.8-7.8c4 0 7.1.9 10 3.4l-3.2 3.5z"/></g><g><g transform="translate(80.638 92)"><linearGradient id="a" gradientUnits="userSpaceOnUse" x1="-322.343" y1="343.353" x2="-324.05" y2="343.353" gradientTransform="matrix(17.5436 0 0 -21.5574 5636.221 7330.415)"><stop offset="0" style="stop-color:#9055a2"/><stop offset=".186" style="stop-color:#9d4d98"/><stop offset=".545" style="stop-color:#bb3182"/><stop offset=".692" style="stop-color:#c81a78"/></linearGradient><path d="m-18.8-62.5-25.9-27.3c-5.2 5-5.4 13.4-.4 18.7L-27.9-53" style="fill:url(#a)"/><linearGradient id="b" gradientUnits="userSpaceOnUse" x1="-317.414" y1="325.703" x2="-316.696" y2="325.008" gradientTransform="matrix(8.9732 0 0 -9.3789 2820.06 2991.96)"><stop offset="0" style="stop-color:#fff;stop-opacity:0"/><stop offset=".244" style="stop-color:silver;stop-opacity:.2437"/><stop offset="1" style="stop-color:#000"/></linearGradient><path d="m-24.9-69 6.1 6.5-9 9.5-6.3-6.7c3-3.1 6.1-6.2 9.2-9.3z" style="opacity:.64;fill:url(#b);enable-background:new"/><path d="m-42.9-37.1 24.1-25.4c5.3 5.6 5.2 14.7-.2 20.2l-14.4 14.6a6.64 6.64 0 0 1-9.4 0c-2.6-2.6-2.6-6.8-.1-9.4z" style="fill:#d61360"/></g><g transform="translate(68 108.342)"><linearGradient id="c" gradientUnits="userSpaceOnUse" x1="-311.45" y1="325.071" x2="-309.743" y2="325.071" gradientTransform="matrix(16.3079 0 0 -20.3139 5025.574 6572.16)"><stop offset="0" style="stop-color:#0b9dd4"/><stop offset=".848" style="stop-color:#a4ce49"/></linearGradient><path d="M-53.5-39.1-29.7-14c5.2-5 5.4-13.4.4-18.7l-15.2-16" style="fill:url(#c)"/><linearGradient id="d" gradientUnits="userSpaceOnUse" x1="-305.882" y1="307.359" x2="-306.6" y2="308.055" gradientTransform="matrix(8.9732 0 0 -9.3789 2700.538 2843.839)"><stop offset="0" style="stop-color:#fff;stop-opacity:0"/><stop offset=".244" style="stop-color:silver;stop-opacity:.2437"/><stop offset="1" style="stop-color:#000"/></linearGradient><path d="m-47.4-32.6-6.1-6.5 9-9.5 6.3 6.7c-3.1 3-6.2 6.2-9.2 9.3z" style="opacity:.64;fill:url(#d);enable-background:new"/><linearGradient id="e" gradientUnits="userSpaceOnUse" x1="-312.337" y1="326.214" x2="-310.274" y2="327.923" gradientTransform="matrix(18.3184 0 0 -22.3834 5660.609 7260.148)"><stop offset="0" style="stop-color:#a7deee"/><stop offset="1" style="stop-color:#0b9dd4"/></linearGradient><path d="m-53.3-59.3 15.9-16.1c2.6-2.6 6.8-2.6 9.3 0 2.5 2.6 2.6 6.7.1 9.4l-25.5 26.9c-5.3-5.6-5.2-14.7.2-20.2z" style="fill:url(#e)"/></g></g></svg>